<svg xmlns="http://www.w3.org/2000/svg" width="52" height="52" viewBox="0 0 52 52">
  <g fill="none" fill-rule="evenodd">
    <rect width="52" height="52" fill="#E4E8ED" rx="26"/>
    <rect width="10.2" height="10.2" x="32.8" y="6" fill="#C2C7CC" rx="5.1"/>
    <rect width="4.8" height="4.8" x="10" y="30" fill="#C2C7CC" rx="2.4"/>
    <rect width="7.2" height="7.2" x="21.4" y="37.2" fill="#C2C7CC" rx="3.6"/>
    <g transform="translate(12 16)">
      <ellipse cx="3.5" cy="6" fill="#FFB3C6" fill-rule="nonzero" rx="3.5" ry="3"/>
      <ellipse cx="24.5" cy="6" fill="#FFB3C6" fill-rule="nonzero" rx="3.5" ry="3"/>
      <path fill="#525C66" d="M5,0 C5.55228475,-1.01453063e-16 6,0.44771525 6,1 L6,2.5 C6,3.05228475 5.55228475,3.5 5,3.5 C4.44771525,3.5 4,3.05228475 4,2.5 L4,1 C4,0.44771525 4.44771525,1.01453063e-16 5,0 Z" transform="rotate(90 5 1.75)"/>
      <path fill="#525C66" d="M23,0 C23.5522847,-1.01453063e-16 24,0.44771525 24,1 L24,2.5 C24,3.05228475 23.5522847,3.5 23,3.5 C22.4477153,3.5 22,3.05228475 22,2.5 L22,1 C22,0.44771525 22.4477153,1.01453063e-16 23,0 Z" transform="rotate(90 23 1.75)"/>
      <path fill="#525C66" fill-rule="nonzero" d="M14,7 L14,7 C12.6193291,7 11.5,5.88067086 11.5,4.5 L11.5,2.68248157 C11.5,2.30562015 11.8054965,2 12.1824816,2 L15.8175184,2 C16.1943799,2 16.5,2.30549646 16.5,2.68248157 L16.5,4.5 C16.5001237,5.88079454 15.3806709,7 14,7 Z"/>
    </g>
  </g>
</svg>
